<svg width="156" height="107" viewBox="0 0 156 107" fill="none" xmlns="http://www.w3.org/2000/svg">
<path d="M81.9103 57.1926L66.4391 84.0404L50.968 57.1926H81.9103ZM86.0549 54.793H46.8066L66.4391 88.7892L86.0549 54.793Z" fill="#414042"/>
<path d="M108.813 23.7991L124.284 50.6469H93.3421L108.813 23.7991ZM108.813 19L89.1807 52.9961H128.446L108.813 19Z" fill="#414042"/>
<path d="M28 19L44.4612 49.0697L62.4492 19.7551L28 19Z" fill="#414042"/>
<path d="M66.4437 21.6367L83.7103 51.5386H49.1436L66.4437 21.6367Z" fill="#414042"/>
<path d="M88.1544 58.0645L105.438 88.7887H70.0488L87.6174 58.0645H88.1544Z" fill="#414042"/>
<path d="M91.8965 56.1982L108.811 86.4525L125.96 56.1982H91.8965Z" fill="#414042"/>
</svg>
